<svg xmlns="http://www.w3.org/2000/svg" width="1024" height="1024" viewBox="0 0 1024 1024" version="1.1">
	<path d="M 238.762 818.073 C 235.330 820.073, 234.751 822.735, 236.564 828.194 C 238.991 835.501, 237.431 841.332, 229.531 854.486 C 224.034 863.639, 205.612 888, 204.187 888 C 202.261 888, 206.062 843.659, 209.100 830.696 C 212.175 817.569, 198.242 832.679, 172.675 870.198 C 159.217 889.948, 160 889.685, 160 874.453 C 160 857.187, 163.485 845.140, 171.610 834.317 C 174.436 830.553, 174.677 828.677, 172.250 829.351 C 171.287 829.618, 167.800 830.113, 164.500 830.451 C 137.475 833.222, 117.713 854.092, 129.329 867.596 C 134.186 873.243, 140.643 867.971, 137.475 860.945 C 133.775 852.740, 140.330 843.347, 152.115 839.967 C 154.951 839.154, 154.951 839.154, 152.067 844.867 C 146.443 856.009, 145.393 905.301, 150.660 910.961 C 151.609 911.981, 171.542 885.854, 183.670 867.692 C 192.853 853.942, 193.129 853.640, 192.534 858 C 191.769 863.612, 190.099 912.338, 190.650 912.944 C 192.373 914.836, 225.882 875.849, 236.029 860.147 C 237.453 857.942, 237.529 858.258, 237.223 865.147 C 236.749 875.794, 240.628 881.593, 246.758 879.402 C 250.044 878.227, 251.219 874.975, 249.531 871.722 C 243.889 860.847, 246.613 850.749, 257 844.029 C 261.300 841.247, 270 838.473, 270 839.884 C 270 841.657, 257.910 885.241, 255.959 890.500 C 253.109 898.185, 252.820 898.510, 247.539 899.989 C 243.679 901.070, 241 904.111, 241 907.412 C 241 907.475, 250.113 907.525, 261.250 907.524 C 272.387 907.523, 286 907.730, 291.500 907.985 C 307.635 908.734, 318.796 898.968, 312.605 889.519 C 308.783 883.687, 301.373 887.407, 302.367 894.659 C 303.211 900.819, 301.810 901.259, 288.984 898.855 C 283.105 897.754, 275.788 897.043, 272.326 897.238 C 266.559 897.562, 266.218 897.462, 267.151 895.719 C 267.700 894.692, 269.874 888.598, 271.982 882.176 C 275.998 869.939, 292.842 862.972, 292.353 873.750 C 292.162 877.952, 298.549 878.850, 299.464 874.750 C 303.827 855.183, 303.812 857, 299.608 857 C 296.873 857, 296.102 857.459, 295.621 859.372 C 294.940 862.086, 291.854 863, 283.375 863 C 277.095 863, 277.276 863.827, 280.623 850.470 C 283.519 838.912, 308.231 832.788, 306.727 844 C 306.023 849.249, 312.415 850.414, 313.585 845.250 C 313.928 843.737, 314.837 839.960, 315.604 836.856 C 317.437 829.443, 317.494 829.638, 313.750 830.490 C 311.962 830.897, 300.150 831.548, 287.500 831.938 C 261.325 832.744, 256.794 833.804, 249.075 840.931 C 246.752 843.076, 245.145 844.081, 245.505 843.165 C 251.532 827.814, 247.540 812.959, 238.762 818.073 M 832 819 C 829.415 821.585, 829.484 823.225, 832.481 830.500 C 841.865 853.281, 821.462 894.254, 799.958 895.809 C 781.153 897.170, 779.863 875.941, 796.656 841.432 C 799.314 835.970, 801.638 831.174, 801.819 830.776 C 802.935 828.327, 774.238 832.339, 767.992 835.504 C 756.870 841.140, 751.160 855.251, 757.455 861.545 C 763.387 867.478, 769.563 860.858, 765.474 852.950 C 762.441 847.086, 769.183 840.896, 780.258 839.378 C 784.920 838.739, 784.920 838.739, 780.589 848.620 C 765.594 882.827, 768.627 904.572, 788.816 907.600 C 814.152 911.399, 839.694 881.738, 844.137 843.359 C 846.335 824.367, 839.783 811.217, 832 819 M 682.748 822.435 C 673.281 825.793, 662.374 837.343, 652.553 854.411 C 649.727 859.321, 649.727 859.321, 647.924 852.222 C 642.875 832.337, 638.682 828.242, 627.286 832.064 C 604.863 839.585, 592.850 858.914, 603.475 870.378 C 609.537 876.919, 617.244 870.009, 611.500 863.182 C 605.371 855.899, 616.280 840, 627.406 840 C 634.458 840, 639.261 864.762, 635.260 880.500 C 631.038 897.111, 630.660 897.902, 626.079 899.701 C 622.548 901.088, 621.063 903.080, 621.012 906.500 C 620.992 907.835, 654.985 907.257, 656.627 905.895 C 661.880 901.535, 659.966 899.065, 651.821 899.693 C 643.772 900.314, 643.772 900.314, 644.506 896.907 C 651.395 864.923, 670.372 835.346, 685.274 833.369 C 692.892 832.359, 696.451 827.463, 692.250 823.773 C 689.516 821.372, 686.816 820.992, 682.748 822.435 M 872.550 830.132 C 866.290 831.590, 865.315 833.071, 864.538 842.302 C 864.158 846.811, 862.834 858.531, 861.595 868.347 C 859.197 887.345, 859.224 887.541, 864.118 886.829 C 865.764 886.590, 866.615 885.545, 867.237 883 C 867.708 881.075, 870.839 868.969, 874.195 856.098 C 881.295 828.871, 881.246 828.106, 872.550 830.132 M 382.205 831.894 C 360.754 839.304, 357.330 857.070, 373.965 874.645 C 385.893 887.245, 386.949 894.608, 377.936 902.323 C 368.703 910.226, 354.017 908.871, 353.996 900.115 C 353.981 893.609, 346.304 889.696, 342 894 C 332.407 903.593, 350.315 917.690, 368.500 914.861 C 398.038 910.266, 405.444 887.157, 384.470 865.026 C 373.967 853.943, 373.138 849.991, 379.815 842.832 C 388.761 833.242, 398 836.454, 398 849.155 C 398 860.633, 404.272 861.623, 405.481 850.336 C 405.873 846.671, 406.821 841.609, 407.586 839.086 C 409.605 832.437, 409.697 832.551, 401.242 831.221 C 391.064 829.619, 388.532 829.709, 382.205 831.894 M 482.702 830.631 C 482.355 830.979, 471.142 831.566, 457.785 831.936 C 433.956 832.597, 433.383 832.662, 427.266 835.434 C 411.388 842.629, 401.526 864.004, 408.549 876 C 413.895 885.132, 422.847 878.501, 418 869 C 411.911 857.064, 420.780 843.478, 437.175 839.628 C 439.849 839, 439.849 839, 435.876 854.250 C 425.199 895.226, 424.229 897.538, 416.688 899.968 C 413.319 901.053, 411.001 903.844, 411 906.815 C 411 907.192, 419.887 907.503, 430.750 907.506 C 441.612 907.509, 455 907.734, 460.500 908.006 C 477.243 908.833, 490.133 896.766, 481.171 888.655 C 476.316 884.261, 469.723 888.898, 471.909 895.170 C 473.883 900.831, 471.827 901.279, 456.309 898.575 C 450.704 897.598, 443.836 896.957, 441.047 897.150 C 436.836 897.441, 436.088 897.246, 436.635 896 C 436.997 895.175, 439.140 888.992, 441.397 882.260 C 445.755 869.261, 462 862.354, 462 873.500 C 462 876.790, 462.197 877, 465.286 877 C 468.813 877, 468.552 877.688, 472.304 858.500 C 472.742 856.265, 465.875 856.761, 465.288 859.008 C 464.537 861.879, 461.190 863, 453.368 863 C 447.648 863, 446.926 862.789, 447.373 861.250 C 447.652 860.288, 448.392 857.475, 449.016 855 C 453.086 838.863, 451.907 840, 464.571 840 C 476 840, 476 840, 476 844 C 476 853.273, 482.221 849.668, 484.627 839 C 486.618 830.174, 485.971 827.362, 482.702 830.631 M 563.702 830.631 C 563.355 830.979, 552.101 831.557, 538.694 831.916 C 510.756 832.664, 505.822 834.045, 497.038 843.575 C 485.659 855.919, 484 878.615, 494.387 879.825 C 500.365 880.521, 502.419 875.701, 499 869 C 492.957 857.155, 501.942 843.388, 518.175 839.621 C 521.088 838.944, 519.003 848.875, 509.400 881.426 C 504.512 897.997, 504.383 898.203, 497.706 900.051 C 494.265 901.003, 492 903.735, 492 906.934 C 492 907.376, 499.107 907.511, 507.794 907.233 C 516.866 906.944, 528.502 907.236, 535.133 907.920 C 556.505 910.123, 572.948 898.408, 562.171 888.655 C 557.341 884.284, 551.157 888.573, 553.004 895.013 C 554.687 900.881, 553.262 901.199, 537.309 898.514 C 531.704 897.571, 524.836 896.957, 522.047 897.150 C 517.828 897.441, 517.091 897.248, 517.657 896 C 518.031 895.175, 520.174 888.991, 522.419 882.258 C 526.752 869.261, 543 862.346, 543 873.500 C 543 876.790, 543.197 877, 546.286 877 C 549.813 877, 549.552 877.688, 553.304 858.500 C 553.742 856.265, 546.875 856.761, 546.288 859.008 C 545.537 861.879, 542.190 863, 534.368 863 C 528.648 863, 527.926 862.789, 528.373 861.250 C 528.652 860.288, 529.392 857.475, 530.016 855 C 534.086 838.863, 532.907 840, 545.571 840 C 557 840, 557 840, 557 844 C 557 853.273, 563.221 849.668, 565.627 839 C 567.618 830.174, 566.971 827.362, 563.702 830.631 M 708.500 831.327 C 692.038 835.525, 678.144 851.674, 674.939 870.335 C 667.705 912.452, 721.893 922.831, 741.917 883.164 C 757.549 852.197, 739.070 823.530, 708.500 831.327 M 707.759 839.423 C 695.987 843.624, 689.617 855.538, 689.539 873.500 C 689.396 906.264, 721.369 910.158, 730.590 878.500 C 737.813 853.704, 725.723 833.011, 707.759 839.423 M 856.092 892.402 C 850.568 898.282, 853.542 908, 860.866 908 C 864.993 908, 869 903.122, 869 898.098 C 869 890.837, 860.914 887.269, 856.092 892.402" stroke="none" fill="#000000" fill-rule="evenodd" />
	<path d="M 493 144.619 C 462.673 148.353, 455.893 149.527, 436 154.491 C 328.628 181.283, 214.528 265.874, 123.886 385.885 C 106.716 408.618, 106.882 405.476, 121.791 425.591 C 245.153 592.033, 406.342 683.551, 548 667.578 C 666.655 654.199, 809.373 556.293, 905.730 422.172 C 917.536 405.738, 918.050 408.443, 898.071 381.880 C 783.806 229.958, 612.904 129.855, 493 144.619 M 496.500 206.993 C 492.650 207.475, 487.250 208.126, 484.500 208.440 C 358.134 222.874, 275.899 363.803, 324.935 481.893 C 403.652 671.465, 682.691 636.989, 712.574 434 C 730.719 310.746, 617.551 191.852, 496.500 206.993 M 236.760 350.719 C 208.129 379.707, 187 403.669, 187 407.152 C 187 411.144, 256.812 487.521, 258.719 485.615 C 258.950 485.383, 257.986 480.762, 256.576 475.347 C 244.811 430.160, 244.935 389.328, 256.997 337.512 C 258.020 333.118, 258.725 329.392, 258.564 329.231 C 258.404 329.070, 248.592 338.740, 236.760 350.719 M 767.162 332.624 C 767.712 334.618, 768.339 337.206, 768.554 338.375 C 768.769 339.544, 769.607 343.425, 770.417 347 C 780.088 389.711, 779.337 434.037, 768.201 477.750 C 767.185 481.738, 766.681 485, 767.081 485 C 769.660 485, 833.416 415.696, 837.004 408.992 C 838.951 405.354, 825.711 389.433, 789.003 351.271 C 767.292 328.699, 765.704 327.343, 767.162 332.624 M 467.455 330.986 C 462.790 331.954, 457.305 334.943, 451.271 339.801 C 447.042 343.207, 447.042 343.207, 442.418 339.137 C 422.358 321.479, 390.649 333.920, 392.243 358.822 C 393.868 384.214, 437.213 433.986, 451.439 426.795 C 461.930 421.491, 492.457 387.368, 499.117 373.500 C 509.634 351.601, 490.687 326.160, 467.455 330.986 M 538.572 333.018 C 523.115 339.053, 516.139 358.865, 524.008 374.381 C 533.945 393.977, 566.724 427.986, 575.684 427.996 C 584.537 428.007, 616.957 394.405, 627.299 374.500 C 643.085 344.118, 605.695 316.405, 580.107 339.522 C 575.954 343.274, 575.954 343.274, 570.898 339.011 C 561.527 331.110, 549.276 328.838, 538.572 333.018 M 428.230 473.551 C 422.324 477.688, 423.338 481.194, 433.150 490.565 C 466.092 522.024, 524.479 529.189, 566 506.868 C 591.069 493.390, 605.592 474, 590.616 474 C 587.172 474, 586.109 474.612, 572.500 484.441 C 532.287 513.482, 486.629 512.866, 446.933 482.748 C 430.720 470.447, 431.861 471.008, 428.230 473.551" stroke="none" fill="#2ee4bb" fill-rule="evenodd" />
</svg>
